{
  "asset": {
    "version": "2.0",
    "generator": "Copilot ring model generator"
  },
  "scene": 0,
  "scenes": [
    {
      "nodes": [
        0
      ]
    }
  ],
  "nodes": [
    {
      "mesh": 0,
      "name": "Ring"
    }
  ],
  "meshes": [
    {
      "name": "RingMesh",
      "primitives": [
        {
          "attributes": {
            "POSITION": 0,
            "NORMAL": 1,
            "TEXCOORD_0": 2
          },
          "indices": 3,
          "material": 0
        }
      ]
    }
  ],
  "materials": [
    {
      "name": "Gold",
      "doubleSided": true,
      "pbrMetallicRoughness": {
        "baseColorFactor": [
          0.83,
          0.66,
          0.34,
          1
        ],
        "metallicFactor": 1,
        "roughnessFactor": 0.12
      }
    }
  ],
  "buffers": [
    {
      "byteLength": 276000,
      "uri": "data:application/octet-stream;base64,"
    }
  ],
  "bufferViews": [
    {
      "buffer": 0,
      "byteOffset": 0,
      "byteLength": 75852,
      "target": 34962
    },
    {
      "buffer": 0,
      "byteOffset": 75852,
      "byteLength": 75852,
      "target": 34962
    },
    {
      "buffer": 0,
      "byteOffset": 151704,
      "byteLength": 50568,
      "target": 34962
    },
    {
      "buffer": 0,
      "byteOffset": 202272,
      "byteLength": 73728,
      "target": 34963
    }
  ],
  "accessors": [
    {
      "bufferView": 0,
      "componentType": 5126,
      "count": 6321,
      "type": "VEC3",
      "min": [
        -1.1200000047683716,
        -0.11999999731779099,
        -1.1200000047683716
      ],
      "max": [
        1.1200000047683716,
        0.11999999731779099,
        1.1200000047683716
      ]
    },
    {
      "bufferView": 1,
      "componentType": 5126,
      "count": 6321,
      "type": "VEC3"
    },
    {
      "bufferView": 2,
      "componentType": 5126,
      "count": 6321,
      "type": "VEC2"
    },
    {
      "bufferView": 3,
      "componentType": 5123,
      "count": 36864,
      "type": "SCALAR"
    }
  ]
}